<svg xmlns="http://www.w3.org/2000/svg" role="img" viewBox="267.28 176.53 257.93 258.18"><title>Stellarcarbon</title><style>svg {enable-background:new 0 0 792 612}</style><path d="M396.36 429.81c-68.44 0-124.11-55.68-124.11-124.11s55.68-124.11 124.11-124.11 124.11 55.68 124.11 124.11-55.67 124.11-124.11 124.11zm0-232.91c-59.99 0-108.79 48.8-108.79 108.79s48.8 108.79 108.79 108.79 108.79-48.8 108.79-108.79-48.8-108.79-108.79-108.79z"/><path d="M396.36 368.52c-34.64 0-62.82-28.18-62.82-62.82s28.18-62.82 62.82-62.82c22.36 0 43.21 12.03 54.41 31.41 2.12 3.66.87 8.35-2.8 10.47-3.66 2.12-8.35.86-10.47-2.8-8.48-14.65-24.25-23.76-41.15-23.76-26.19 0-47.5 21.31-47.5 47.5s21.31 47.5 47.5 47.5c16.91 0 32.67-9.1 41.15-23.75 2.12-3.66 6.81-4.91 10.47-2.8 3.66 2.12 4.91 6.81 2.8 10.47-11.2 19.36-32.05 31.4-54.41 31.4z"/><path d="M460.57 237.77c-29.22-27.58-72.66-33.44-108.1-14.59-35.44 18.85-54.86 58.15-48.32 97.79.42 2.54 2.04 4.58 4.18 5.63 1.38.68 2.99.95 4.62.68 4.18-.69 7-4.63 6.31-8.8-5.46-33.15 10.77-66.01 40.4-81.77 29.63-15.76 65.95-10.86 90.39 12.2 3.08 2.92 7.93 2.77 10.83-.31 2.9-3.08 2.76-7.93-.31-10.83zm28.11 53.27c-.66-4.18-4.58-7.03-8.76-6.37-4.18.66-7.03 4.58-6.37 8.76 5.2 32.95-11.07 65.61-40.49 81.26-29.42 15.65-65.59 10.89-90.01-11.85-3.1-2.89-7.95-2.71-10.83.38-2.88 3.1-2.71 7.95.39 10.83 6.81 6.35 14.39 11.52 22.45 15.48 26.49 13.03 58.22 13.03 85.19-1.32 35.19-18.71 54.65-57.76 48.43-97.17z"/></svg>